# xmcd
#
# Track frame offsets: 
#        150
#        59136
#        97384
#        133744
#        230304
#
# Disc length: 3565 seconds
#
# Revision: 0
# Processed by: cddbd v1.5.2PL0 Copyright (c) Steve Scherf et al.
# Submitted via: ExactAudioCopy v0.99pb4
#
DISCID=4a0deb05
DTITLE=Savoy Brown - Train To Nowhere
DYEAR=2010
DGENRE=Blues
TTITLE0=Little Red Rooster
TTITLE1=Mississippi Steam Boat
TTITLE2=Lookin' In
TTITLE3=Louisiana Blues
TTITLE4=Little Wheel
EXTD=
EXTT0=
EXTT1=
EXTT2=
EXTT3=
EXTT4=
PLAYORDER=
